<?xml version="1.0" standalone="no"?><!DOCTYPE svg PUBLIC "-//W3C//DTD SVG 1.1//EN" "http://www.w3.org/Graphics/SVG/1.1/DTD/svg11.dtd"><svg t="1775363708161" class="icon" viewBox="0 0 1024 1024" version="1.1" xmlns="http://www.w3.org/2000/svg" p-id="6713" xmlns:xlink="http://www.w3.org/1999/xlink" width="200" height="200"><path d="M564.8 243.2c9.6 0 19.2 8 19.2 19.2v366.4c0 9.6-8 17.6-17.6 17.6-9.6 0-17.6-8-17.6-17.6V262.4c-1.6-11.2 6.4-19.2 16-19.2zM654.4 272c9.6 0 19.2 8 19.2 17.6v336c0 9.6-8 17.6-17.6 17.6-9.6 0-17.6-8-17.6-17.6v-336c-3.2-8 4.8-17.6 16-17.6z" fill="#FFB53B" p-id="6714"></path><path d="M382.4 547.2c-11.2 0-20.8-9.6-20.8-20.8 0-54.4 44.8-97.6 97.6-97.6 11.2 0 20.8 9.6 20.8 20.8s-9.6 20.8-20.8 20.8c-32 0-56 25.6-56 56 0 12.8-9.6 20.8-20.8 20.8z" fill="#222222" p-id="6715"></path><path d="M408 416v-112c0-9.6-8-19.2-19.2-19.2s-19.2 8-19.2 19.2v139.2c11.2-11.2 24-20.8 38.4-27.2zM377.6 572.8h-8v54.4c0 9.6 8 19.2 19.2 19.2s19.2-8 19.2-19.2V560c-8 9.6-19.2 12.8-30.4 12.8zM464 403.2c12.8 0 24 6.4 32 16v-156.8c0-9.6-8-19.2-19.2-19.2s-19.2 8-19.2 19.2v140.8h6.4zM464 488h-4.8v139.2c0 9.6 8 19.2 19.2 19.2s19.2-8 19.2-19.2v-155.2c-9.6 9.6-22.4 16-33.6 16z" fill="#FFB53B" p-id="6716"></path><path d="M684.8 408s65.6 30.4 57.6 83.2-36.8 57.6-36.8 88c0 33.6 1.6 211.2 1.6 211.2l-24 12.8 67.2 3.2 12.8-64s-11.2-136 0-158.4c11.2-22.4 40-40 40-64s9.6-70.4-6.4-89.6c-14.4-17.6-33.6-30.4-54.4-38.4-12.8-3.2-60.8-12.8-60.8-12.8s-57.6-27.2 3.2 28.8z" fill="#E5E5E5" p-id="6717"></path><path d="M729.6 838.4h-70.4c-12.8 0-22.4-9.6-22.4-22.4 0-12.8 9.6-22.4 22.4-22.4h70.4c4.8 0 8-3.2 8-8V584c0-8 3.2-14.4 9.6-19.2 40-27.2 51.2-83.2 22.4-123.2-19.2-28.8-54.4-43.2-88-36.8-12.8 1.6-24-6.4-27.2-19.2V380.8c-1.6-73.6-60.8-131.2-134.4-129.6-60.8 1.6-113.6 43.2-126.4 104-1.6 9.6-11.2 17.6-22.4 17.6-64 3.2-115.2 57.6-112 121.6 1.6 35.2 17.6 67.2 44.8 88 6.4 4.8 9.6 11.2 9.6 17.6V784c0 4.8 3.2 8 8 8h225.6c12.8 0 22.4 9.6 22.4 22.4 0 12.8-9.6 22.4-22.4 22.4H321.6c-30.4 0-54.4-24-54.4-54.4V609.6c-67.2-60.8-73.6-163.2-12.8-230.4 25.6-28.8 60.8-48 99.2-52.8 30.4-94.4 131.2-145.6 224-113.6 65.6 20.8 112 78.4 121.6 145.6 75.2 1.6 134.4 64 131.2 139.2-1.6 38.4-17.6 73.6-48 99.2V784c1.6 28.8-22.4 54.4-52.8 54.4z m32-254.4" fill="#222222" p-id="6718"></path></svg>